<?xml version="1.0" encoding="utf-8"?>
<!-- Generator: Adobe Illustrator 28.1.0, SVG Export Plug-In . SVG Version: 6.00 Build 0)  -->
<svg version="1.1" xmlns="http://www.w3.org/2000/svg" xmlns:xlink="http://www.w3.org/1999/xlink" x="0px" y="0px"
	 viewBox="0 0 256 256" style="enable-background:new 0 0 256 256;" xml:space="preserve">
<style type="text/css">
	.st0{fill:url(#SVGID_1_);}
	.st1{fill:#484848;}
	.st2{fill:#B5B5B5;}
	.st3{fill:#FFB0CA;}
	.st4{fill:#F42A64;}
	.st5{fill:#333333;}
	.st6{fill:#00BC86;}
	.st7{fill:#FFCD50;}
	.st8{fill:#A759D8;}
	.st9{fill:#13A8F2;}
	.st10{fill:none;stroke:#000000;stroke-width:0.5;stroke-miterlimit:10;}
	.st11{fill:#FFFFFF;stroke:#000000;stroke-width:0.5;stroke-miterlimit:10;}
</style>
<g id="Layer_3">
	
		<radialGradient id="SVGID_1_" cx="605.5766" cy="141.60574" r="1120.29602" gradientTransform="matrix(0.16417 0 0 0.18524 28.58411 101.76913)" gradientUnits="userSpaceOnUse">
		<stop  offset="0" style="stop-color:#FFF5F5"/>
		<stop  offset="0.36652" style="stop-color:#FFF3F2"/>
		<stop  offset="0.6471" style="stop-color:#FFEEE8"/>
		<stop  offset="0.89843" style="stop-color:#FFE5D8"/>
		<stop  offset="1" style="stop-color:#FFE0CF"/>
	</radialGradient>
	<rect class="st0" width="256" height="256"/>
</g>
<g id="colors">
	<g>
		<g id="surface1">
			<g>
				<path class="st1" d="M179.95979,195.67348l-16.89064,0.05501c-7.97639,0.01109-13.27155-5.25742-13.28572-13.24174
					l-0.1069-24.13164c-0.01662-7.97882,5.25737-13.27156,13.24168-13.28571l16.88271-0.05193
					c7.97882-0.01662,13.27707,5.2598,13.28816,13.23622l0.10695,24.13162
					C193.21265,190.36414,187.93863,195.65686,179.95979,195.67348z"/>
			</g>
		</g>
		<path class="st2" d="M254.48712,91.69738l-0.10143-33.77091c-0.02873-14.5075-2.4326-26.50362-16.94009-26.47488l0.14168,60.3017
			c0.00948,5.32341-4.29715,9.64717-9.62056,9.65884l-38.63101,0.19032c-14.50755,0.02876-26.50122,12.06878-26.47246,26.57633
			l0.05496,16.89062l16.88271-0.05193l-0.03152-16.89339c-0.00992-5.32294,4.29561-9.64687,9.61855-9.65965l38.6243-0.18525
			C242.51978,118.25046,254.51588,106.20493,254.48712,91.69738z"/>
		<path class="st3" d="M231.99037,48.24191c-2.61292-1.14737-8.20509-3.1914-15.03137-3.1914
			c-2.49722,0-20.96109,3.95313-28.08626,3.55779c-7.11559-0.39528-22.93764-1.97654-32.83003-4.7437
			c-9.89232-2.76716-33.97889,1.58125-33.97889,1.58125l-16.99831,3.26849c-9.13066,1.7548-18.53131,1.49451-27.54627-0.76167
			l-12.30282-3.0757c-6.91314-1.72584-13.99976-2.63216-21.11534-2.69966l-17.24901-0.17355
			c-7.6844-0.07715-15.27241,1.668-22.1373,5.10044c-0.81958,0.41459-1.66805,0.83882-2.53577,1.27271
			c0.0675-3.2589,0.31819-6.5178,0.71348-9.76704c0.35674-2.91181,0.80993-5.80432,1.27271-8.68718
			c0.27959-1.71619,0.51098-3.45174,0.99306-5.10044c0.57854-2.00549,0.93528-4.06883,0.92562-6.16106v-0.00965
			c0-1.3498,0.14465-2.63216,0.44354-3.82772c1.4173-5.79467,6.17065-9.44885,12.79449-9.4585l199.3244-0.39534
			c7.97365-0.00965,13.26692,5.26439,13.28622,13.24768L231.99037,48.24191z"/>
		<path class="st4" d="M232.03857,71.26628c0,1.05097-0.08675,2.05369-0.26994,2.99856
			c-0.84846,4.61841-3.72168,8.00266-7.94475,9.4778c-7.56876,3.75063-15.88956,4.11703-24.24889,3.43244
			c-3.11424-0.25069-6.22856-0.26994-9.35246-0.21209c-0.94485,0.01925-1.89938-0.04826-2.8443-0.22179
			c-3.18175-0.57848-5.86212-1.5041-9.13066-0.83882c-2.69002,0.54958-5.20654,1.29201-7.98335,1.24381
			c-0.92557-0.00965-1.84154-0.0868-2.75752-0.2218c-2.38147-0.32778-4.79189-0.30854-7.16377,0.08681
			c-0.0193,0.00965-0.02888,0.00965-0.03854,0.00965c-11.05905,1.85119-22.76559,2.12112-33.91139,0.84847
			c-3.82778,0.19279-7.65551,0.28924-11.48329,0.12529c-0.00965,0-0.0193,0-0.0193,0
			c-1.4173-0.05785-2.82501-0.01925-4.22307,0.18319c-1.29195,0.1832-2.59356,0.34715-3.90488,0.4725
			c-2.99855,0.26994-6.0164,0.39528-9.03426,0.37598c-1.20521,0-2.39112,0.17355-3.52883,0.53993
			c-0.02895,0.00965-0.05785,0.0193-0.0868,0.02895c-3.0371,0.98347-6.11281,1.83195-9.33316,1.80299
			c-3.0564-0.02895-5.97786-0.78098-8.93787-1.46555c-2.84425-0.65563-5.94891-1.45591-8.83177-0.57848
			c-3.2782,0.98347-5.22578,2.67077-8.86072,1.81264c-2.14043-0.50138-4.22307-1.15701-6.32495-1.71625
			c-0.73278-0.20244-1.5041-0.23139-2.25618-0.14459c-4.33876,0.53028-8.74497,0.63633-12.91984,0.65563
			c-4.93654,0.0193-9.67065-0.56889-14.3372-1.53306c-2.35258,0.23139-12.12927-0.43388-18.11679-4.763
			c-0.45313-0.32778-0.74237-0.92556-1.05091-1.3884c-0.60743-0.94487-1.03167-1.94759-1.28236-3.0371
			c-0.48208-2.12119-0.18319-4.30987,0.25069-6.41175c0.77132-3.70238,0.91597-7.15412,0.76167-10.70226
			c-0.0675-1.78375-0.21209-3.59639-0.39528-5.47647c-0.26034-2.75757-0.34709-5.51508-0.29889-8.27259
			c0.86772-0.43389,1.71619-0.85813,2.53577-1.27271c6.86488-3.43244,14.45289-5.17759,22.1373-5.10044l17.24901,0.17355
			c7.11558,0.0675,14.2022,0.97382,21.11534,2.69966l12.30282,3.0757c9.01496,2.25618,18.41561,2.51647,27.54627,0.76167
			l16.99831-3.26849c0,0,24.08657-4.34842,33.97889-1.58125c9.8924,2.76716,25.71445,4.34842,32.83003,4.7437
			c7.12517,0.39534,25.58904-3.55779,28.08626-3.55779c6.82628,0,12.41846,2.04403,15.03137,3.1914l0.03854,19.0327
			L232.03857,71.26628z"/>
	</g>
</g>
<g id="vector-controls">
	<g>
		<g>
			<path class="st5" d="M13.89697,130.59863c0.14307,2.3125,0.87793,3.92773,2.20459,4.84473
				c1.32666,0.97363,3.06543,1.44141,5.21729,1.4043c0.82422,0,1.62207-0.0918,2.39307-0.27637
				c0.7168-0.12891,1.37109-0.35938,1.96289-0.69141c1.25488-0.68164,1.8999-1.74121,1.93604-3.17871
				c0-0.90332-0.31152-1.6582-0.93506-2.2666c-0.62354-0.58984-1.46045-1.07812-2.51123-1.46533
				c-2.22656-0.71826-4.81787-1.43701-7.7749-2.15576c-2.9209-0.75537-5.51221-1.99951-7.77393-3.73193
				c-2.36914-1.69531-3.58936-4.33984-3.66064-7.93311c0-2.21143,0.48828-4.10986,1.46533-5.69482
				c0.95898-1.58447,2.21973-2.85596,3.78271-3.81445c3.23193-1.84229,6.7749-2.76416,10.62891-2.76416
				c4.03125,0,7.60938,1.01611,10.73535,3.04883c1.4917,1.00684,2.68213,2.33398,3.56982,3.98193
				c0.83447,1.61133,1.26953,3.57959,1.30518,5.90479h-10.125c0.03662-1.83496-0.58789-3.11035-1.87305-3.82617
				c-1.26611-0.67871-2.74658-1.01855-4.44092-1.01855c-1.15967,0-2.23828,0.23047-3.2373,0.69092
				c-1.08838,0.51611-1.65039,1.4375-1.68555,2.76416c0,0.71875,0.34766,1.3457,1.04346,1.87988
				c0.62354,0.479,1.46191,0.91211,2.51465,1.29932c1.1416,0.33154,2.36279,0.66309,3.66504,0.99463
				c0.65967,0.16602,1.35547,0.34131,2.08643,0.52539c0.66016,0.18457,1.3374,0.38721,2.0332,0.6084
				c2.9541,0.71875,5.56152,1.95361,7.82129,3.7041c1.0498,0.90332,1.9043,1.99023,2.5625,3.26172
				c0.62305,1.29004,0.93457,2.85645,0.93457,4.69922c-0.07178,5.03125-1.8252,8.55957-5.26221,10.58691
				c-3.34814,2.00879-7.26514,2.99414-11.75244,2.95801c-4.62988,0-8.54688-1.1084-11.75244-3.32422
				c-3.2583-2.28906-4.99512-5.96094-5.2085-11.01562H13.89697z"/>
			<path class="st5" d="M63.51953,144.08496H51.85889l-12.27295-40.24658h10.59619l7.61377,29.93896h0.1333l7.61377-29.93896
				h10.5957L63.51953,144.08496z"/>
			<path class="st5" d="M116.19189,144.08496h-6.56348l-0.61377-4.4043c-1.36963,1.89062-3.04199,3.24805-5.01611,4.07422
				c-2.0459,0.78906-3.99414,1.18359-5.84375,1.18359c-5.97705-0.07422-10.69971-2.125-14.16846-6.15527
				c-3.48633-3.97363-5.24756-8.93262-5.28271-14.87646c0.03516-6.03516,1.79639-11.0127,5.2832-14.93213
				c3.46875-3.99268,8.19141-6.02588,14.16846-6.09961c4.21582,0,8.05811,1.15332,11.52686,3.4585
				c3.45068,2.34326,5.48779,6.05957,6.11035,11.15088h-10.18164c-0.17822-1.78662-0.97998-3.17285-2.40479-4.15918
				c-1.42529-0.94873-3.18896-1.42334-5.2915-1.42334c-3.26025,0.07373-5.57617,1.31836-6.94775,3.73438
				c-1.4624,2.37891-2.1748,5.13574-2.1377,8.27051c-0.03711,3.13477,0.67529,5.87354,2.1377,8.21533
				c1.37158,2.45312,3.6875,3.71582,6.94775,3.78906c5.25488-0.07227,8.23877-2.10156,8.95166-6.08594H99.7583v-7.76318h16.43359
				V144.08496z"/>
			<path d="M38.72656,228.76562c-0.6582,4.99023-2.4458,8.98926-5.36279,11.99805c-2.91748,3.11914-6.84766,4.69629-11.79248,4.7334
				c-5.24707-0.07422-9.47168-2.02832-12.67334-5.86426c-3.29004-3.79883-4.95361-8.7627-4.98877-14.89258
				c-0.03711-5.17578,1.38623-9.9834,4.26904-14.4248c2.8457-4.51465,7.54102-6.84473,14.08691-6.99219
				c5.21143,0.11035,9.08887,1.65039,11.63281,4.62012c2.59668,2.89746,3.9126,5.69336,3.94873,8.38867h-1.09619
				c-0.24902-3.08789-1.65381-5.81738-4.21484-8.18848c-2.54346-2.4082-5.9668-3.64844-10.27051-3.72168
				c-3.16602,0.03711-5.84277,0.69824-8.02979,1.98535c-2.22363,1.26758-4.00195,2.94043-5.33545,5.01758
				c-2.6333,4.35547-3.93164,8.79395-3.89502,13.31543c0,5.3125,1.4585,9.87109,4.37549,13.6748
				c2.8457,3.91504,6.90967,5.91016,12.19189,5.9834c4.69531-0.03711,8.40381-1.54395,11.125-4.52148
				c2.70312-2.86719,4.34814-6.57129,4.93555-11.11133H38.72656z"/>
			<path d="M44.18359,204.28711h1.09521v18.44629h0.10742c0.53369-2.28418,1.68115-4.16406,3.44287-5.6377
				c1.7085-1.43652,3.93262-2.17383,6.67334-2.21094c3.0249,0,5.42725,0.88086,7.20654,2.64258
				c1.81543,1.79883,2.74072,4.39551,2.77637,7.79102v19.21484h-1.09619v-19.07031
				c-0.03564-3.34277-0.90771-5.76855-2.61572-7.27441c-1.7085-1.46973-3.79883-2.20508-6.27197-2.20508
				c-3.36279,0.07422-5.89844,1.27734-7.60645,3.61035c-1.74365,2.37012-2.61572,5.20801-2.61572,8.51562v16.42383h-1.0957
				V204.28711z"/>
			<path d="M72.37256,224.50879c0.1416-2.82324,1.09912-5.13281,2.87305-6.92969c1.73779-1.75879,4.33594-2.65723,7.79443-2.69434
				c2.57129-0.03613,4.73535,0.54199,6.49121,1.73633c1.70215,1.25,2.62451,3.43555,2.7666,6.55859v18.46387
				c0.03516,1.01074,0.4541,1.58887,1.25684,1.73633c0.33887,0.07324,0.72217,0.10938,1.1499,0.10938
				c0.41016-0.03613,0.79346-0.05469,1.15039-0.05469v1.09863c-0.49951,0-1.00732-0.01758-1.52441-0.05469
				c-0.55273,0-1.06055-0.07324-1.52393-0.21973c-1.03418-0.31055-1.56934-1.15234-1.60449-2.52539v-3.78906h-0.10693
				c-0.5874,1.92285-1.84131,3.59766-3.76123,5.02539c-2.00977,1.46484-4.47314,2.21484-7.38916,2.25195
				c-2.82764,0-5.08594-0.67773-6.7749-2.0332c-1.70752-1.31934-2.5791-3.25195-2.61426-5.79883
				c0-1.79492,0.29297-3.25977,0.88037-4.39648c0.55078-1.08008,1.29736-1.92285,2.24023-2.52734s1.98291-1.03516,3.12109-1.29199
				c1.12012-0.25586,2.26758-0.40234,3.44141-0.43945c1.95557-0.12891,3.62695-0.24805,5.01465-0.35938
				c1.38672-0.11035,2.51611-0.29492,3.3877-0.55371c0.87109-0.27637,1.5293-0.70898,1.97412-1.2998
				c0.39062-0.60742,0.58643-1.4375,0.58643-2.48926c0-0.95801-0.05322-1.88965-0.15967-2.79297
				c-0.17725-0.94043-0.54053-1.80762-1.08936-2.60059c-0.51416-0.8291-1.31152-1.47461-2.39258-1.93555
				c-1.13379-0.47949-2.64014-0.71973-4.51807-0.71973c-5.91846,0.07422-9.10791,2.92285-9.56836,8.54688L72.37256,224.50879z
				 M91.20166,227.54492h-0.10645c-0.32031,0.47168-0.84473,0.86133-1.57373,1.16992
				c-0.76465,0.29102-1.6626,0.49023-2.69385,0.59863c-2.02686,0.21777-4.22314,0.38965-6.58789,0.5166
				c-1.10254,0.03711-2.14258,0.16602-3.12061,0.38672c-1.03125,0.25781-1.96533,0.65332-2.80029,1.18652
				c-0.83643,0.47754-1.46729,1.21387-1.89404,2.20703c-0.51562,0.93848-0.77344,2.19824-0.77344,3.78027
				c0,0.79102,0.16016,1.60059,0.47998,2.42773c0.2666,0.79102,0.729,1.50879,1.38721,2.15234
				c1.19092,1.39844,3.29834,2.11523,6.32129,2.15234c3.68018-0.03711,6.50732-1.20508,8.48145-3.50488
				c1.91992-2.22461,2.88037-4.80957,2.88037-7.75293V227.54492z"/>
			<path d="M99.48779,215.5459h1.09521v7.1875h0.10742c0.53369-2.28418,1.68115-4.16406,3.44287-5.6377
				c1.7085-1.43652,3.93262-2.17383,6.67334-2.21094c3.0249,0,5.42725,0.88086,7.20654,2.64258
				c1.81543,1.79883,2.74072,4.39551,2.77637,7.79102v19.21484h-1.09619v-19.07031
				c-0.03564-3.34277-0.90771-5.76855-2.61572-7.27441c-1.7085-1.46973-3.79883-2.20508-6.27197-2.20508
				c-3.36279,0.07422-5.89844,1.27734-7.60645,3.61035c-1.74365,2.37012-2.61572,5.20801-2.61572,8.51562v16.42383h-1.0957V215.5459
				z"/>
			<path d="M149.03906,234.85742h-0.10742c-0.62402,2.5459-1.98926,4.51465-4.09473,5.90625
				c-2.12305,1.46484-4.44238,2.19824-6.95801,2.19824c-3.87207-0.03711-6.79785-1.43164-8.77832-4.18457
				c-1.97998-2.62305-2.97021-5.85352-2.97021-9.68848c0-3.98242,1.04346-7.33203,3.13135-10.04785
				c2.05176-2.7334,5.04883-4.11914,8.99219-4.15625c2.74707,0.03711,5.06641,0.8252,6.95801,2.36426
				c1.8916,1.5752,3.13086,3.58203,3.71973,6.01855h0.10742v-7.72168h1.0957v28.02344
				c-0.10645,7.78125-4.00488,11.6543-11.69531,11.61719c-2.91895,0-5.37598-0.73242-7.37012-2.19824
				c-2.04688-1.42871-3.15918-3.73633-3.3374-6.92383h1.09619c0.17773,2.83105,1.1748,4.87988,2.99023,6.14844
				c1.79785,1.25,3.9873,1.875,6.56836,1.875c7.03027,0.03711,10.58105-3.46973,10.65234-10.51855V234.85742z M148.98535,229.08984
				c0.03711-3.47559-0.85547-6.51172-2.67578-9.10547c-1.78418-2.59375-4.46875-3.92676-8.05371-4.00098
				c-3.62109,0.03711-6.36035,1.31543-8.21484,3.83594c-1.87305,2.51953-2.80957,5.61035-2.80957,9.27051
				c0,3.60547,0.91895,6.62305,2.75586,9.05078c1.81934,2.44629,4.43262,3.68848,7.84082,3.72461
				c3.60254-0.03613,6.37695-1.30566,8.32129-3.80762C148.04004,235.64844,148.98535,232.65918,148.98535,229.08984z"/>
			<path d="M156.38379,230.27051c0.03516,3.99219,0.90625,7.2666,2.6123,9.82422c1.72363,2.64844,4.54785,3.99121,8.47559,4.02832
				c6.07617-0.03711,9.72754-3.24707,10.9541-9.63086h1.09277c-0.42676,3.35645-1.69727,5.9707-3.8125,7.84082
				c-2.15039,1.88965-4.85938,2.85156-8.12988,2.88867c-4.2998-0.03711-7.41016-1.48633-9.3291-4.34961
				c-2.00977-2.82617-2.99609-6.43262-2.95898-10.81836c0.07129-4.90039,1.35059-8.64453,3.83887-11.23242
				c2.36328-2.62402,5.17969-3.93652,8.4502-3.93652c4.37109,0.07422,7.55273,1.63379,9.54297,4.67969
				c2.01367,3.00879,2.92871,6.57812,2.74512,10.70605H156.38379z M178.76953,229.1748
				c0.03711-3.70508-0.87793-6.82129-2.74512-9.34668c-1.88281-2.52637-4.66309-3.80762-8.34082-3.84473
				c-3.05566,0.03711-5.6416,1.20801-7.75488,3.5127c-2.06152,2.30469-3.24316,5.53027-3.54492,9.67871H178.76953z"/>
			<path d="M186.22559,244.5332h-1.09668v-28.9873h1.09668v7.14062h0.1123c0.49805-2.19727,1.64551-4.06543,3.44141-5.60352
				c1.74219-1.53809,4.26758-2.27148,7.5752-2.19824v1.09863c-3.8252-0.07324-6.62793,1.09473-8.40723,3.50391
				c-1.81543,2.44727-2.72168,5.3252-2.72168,8.63574V244.5332z"/>
		</g>
		<path class="st6" d="M57.40765,164.38593c4.33773,0.07358,7.65364,1.56903,9.94774,4.48717
			c2.2578,2.93645,3.38687,6.57019,3.38687,10.90106c0,4.27626-1.12907,7.86421-3.38687,10.76357
			c-2.2941,3.01018-5.61001,4.55124-9.94774,4.62482c-4.3204-0.07358-7.6095-1.61464-9.86764-4.62482
			c-2.29344-2.89935-3.44017-6.4873-3.44017-10.76357c0-4.33087,1.14672-7.96461,3.44017-10.90106
			C49.79815,165.95496,53.08725,164.4595,57.40765,164.38593z M57.40765,167.35638c-3.28191,0.07358-5.74342,1.3506-7.38454,3.83157
			c-1.67676,2.49911-2.51481,5.36575-2.51481,8.59993c0,3.2345,0.83805,6.07367,2.51481,8.51753
			c1.64112,2.51808,4.10263,3.81357,7.38454,3.88683c3.33521-0.07326,5.82353-1.36874,7.46465-3.88683
			c1.64079-2.44386,2.46152-5.28304,2.46152-8.51753c0-3.23418-0.82072-6.10081-2.46152-8.59993
			C63.23118,168.70699,60.74286,167.42996,57.40765,167.35638z"/>
		<path class="st7" d="M76.94117,154.06265h3.40845v40.24646h-3.40845V154.06265z"/>
		<path class="st4" d="M99.19583,164.38593c4.33773,0.07358,7.65365,1.56903,9.94775,4.48717
			c2.2578,2.93645,3.38687,6.57019,3.38687,10.90106c0,4.27626-1.12907,7.86421-3.38687,10.76357
			c-2.2941,3.01018-5.61002,4.55124-9.94775,4.62482c-4.3204-0.07358-7.6095-1.61464-9.86764-4.62482
			c-2.29344-2.89935-3.44016-6.4873-3.44016-10.76357c0-4.33087,1.14672-7.96461,3.44016-10.90106
			C91.58633,165.95496,94.87543,164.4595,99.19583,164.38593z M99.19583,167.35638c-3.28191,0.07358-5.74342,1.3506-7.38454,3.83157
			c-1.67676,2.49911-2.51481,5.36575-2.51481,8.59993c0,3.2345,0.83805,6.07367,2.51481,8.51753
			c1.64112,2.51808,4.10264,3.81357,7.38454,3.88683c3.33521-0.07326,5.82353-1.36874,7.46465-3.88683
			c1.64079-2.44386,2.46151-5.28304,2.46151-8.51753c0-3.23418-0.82072-6.10081-2.46151-8.59993
			C105.01936,168.70699,102.53104,167.42996,99.19583,167.35638z"/>
		<path class="st8" d="M118.67442,165.21172h3.16779v6.79697h0.10659c1.88113-4.82477,5.422-7.21893,10.62231-7.18231v3.5211
			c-3.16714-0.1102-5.68457,0.80862-7.55294,2.7558c-1.92167,2.00308-2.90032,4.56628-2.93564,7.68929v15.51656h-3.40812V165.21172z
			"/>
		<path class="st9" d="M40.26904,168.02664c-0.12729-0.59399-1.05241-1.98807-1.05241-1.98807s-0.93782,1.38893-1.0524,1.98807
			c-0.18059,0.94424,0.05293,1.98805,1.0524,1.98805C40.27203,170.01469,40.44029,168.82574,40.26904,168.02664z"/>
		<path class="st4" d="M115.30856,185.87616c-0.36448-1.20398-3.01333-4.02965-3.01333-4.02965s-2.68524,2.81526-3.01333,4.02965
			c-0.51707,1.91391,0.15156,4.02965,3.01333,4.02965C115.31711,189.90581,115.79889,187.49588,115.30856,185.87616z"/>
		<path class="st9" d="M34.91822,178.27429l-0.06131,0.60164c-0.35772,3.51015-1.56836,6.45494-3.60251,8.75754
			c-2.07551,2.39644-4.77474,3.57848-8.23551,3.6138c-4.91142-0.07063-8.39606-1.80724-10.66106-5.32097
			c-2.27889-3.3728-3.4163-7.33942-3.38066-11.80075c-0.03564-4.45119,1.10258-8.43758,3.38622-11.85274
			c2.2578-3.43134,5.7462-5.15141,10.64977-5.25818c2.75286,0,5.1923,0.79178,7.23936,2.34479
			c2.05197,1.6264,3.41679,3.95418,4.0562,6.91875l0.11395,0.5284h5.05039l-0.11232-0.76677
			c-0.64611-4.40688-2.55536-7.81926-5.67802-10.14474c-3.12578-2.2995-6.71309-3.46552-10.67414-3.46535
			c-6.30403,0.11395-11.10934,2.33105-14.27926,6.58572c-3.16845,4.1852-4.77491,9.27074-4.77491,15.11552
			c0,5.81029,1.60744,10.85071,4.76771,14.96739c3.17253,4.35408,7.97916,6.61974,14.28646,6.73386h0.01455l0.01455-0.00034
			c9.79341-0.24753,15.46522-5.9007,16.858-16.8029l0.09646-0.75467H34.91822z"/>
		<g>
			<line class="st10" x1="5.08274" y1="105.12762" x2="5.08274" y2="125.25169"/>
			<circle cx="5.08274" cy="105.12762" r="1.13327"/>
			<circle cx="5.08274" cy="125.17442" r="1.13327"/>
			<rect x="4.26713" y="114.37405" class="st11" width="1.63122" height="1.63122"/>
		</g>
		<g>
			<line class="st10" x1="107.48449" y1="102.87321" x2="87.36044" y2="102.87321"/>
			<circle cx="107.48449" cy="102.87321" r="1.13327"/>
			<circle cx="87.4377" cy="102.87321" r="1.13327"/>
			
				<rect x="96.60685" y="102.0576" transform="matrix(-1.836970e-16 1 -1 -1.836970e-16 200.29567 5.45075)" class="st11" width="1.63122" height="1.63122"/>
		</g>
	</g>
</g>
</svg>
